<svg width="86" height="18" viewBox="0 0 86 18" fill="none" xmlns="http://www.w3.org/2000/svg">
<g clip-path="url(#clip0_65_716)">
<path d="M17.6872 11.1769C16.488 15.9992 11.6164 18.9326 6.80561 17.7306C1.9974 16.5285 -0.929841 11.6449 0.269898 6.82369C1.46851 2.00138 6.33986 -0.932905 11.1489 0.269157C15.9591 1.47122 18.886 6.35541 17.6869 11.1769H17.6872Z" fill="#F7931A"/>
<path d="M12.9372 7.71778C13.1159 6.52022 12.2063 5.87644 10.9625 5.44697L11.3659 3.82472L10.3808 3.57863L9.98803 5.15813C9.72565 5.0935 9.46265 5.03144 9.19906 4.97194L9.59467 3.38203L8.60985 3.13594L8.20638 4.75763C7.99202 4.70869 7.78159 4.66032 7.57733 4.60941L7.57846 4.60435L6.21991 4.26432L5.95785 5.319C5.95785 5.319 6.68875 5.48691 6.67332 5.49732C7.0723 5.59716 7.14441 5.86182 7.13234 6.07163L6.67276 7.91972C6.70026 7.92675 6.73589 7.93716 6.77517 7.95263L6.67108 7.92675L6.02688 10.5157C5.97806 10.6372 5.85432 10.8194 5.57515 10.7502C5.58525 10.7646 4.8594 10.5711 4.8594 10.5711L4.37036 11.7017L5.65231 12.0223C5.8908 12.0819 6.12452 12.1447 6.35459 12.2037L5.94691 13.8445L6.93089 14.0906L7.33436 12.467C7.60315 12.5404 7.86408 12.6076 8.1194 12.6714L7.71706 14.2872L8.70188 14.5333L9.10984 12.8956C10.7896 13.2143 12.0528 13.0857 12.5845 11.563C13.0129 10.3368 12.5632 9.62944 11.6793 9.16791C12.323 9.01885 12.8078 8.59444 12.9372 7.71778ZM10.6861 10.8813C10.3817 12.1075 8.32198 11.4449 7.65421 11.2784L8.19516 9.10463C8.86293 9.27197 11.0043 9.60272 10.6861 10.8813ZM10.9908 7.70035C10.713 8.8155 8.99873 8.24878 8.44263 8.10985L8.93307 6.13828C9.48917 6.27722 11.2801 6.53653 10.9908 7.70007V7.70035Z" fill="white"/>
<path d="M26.3122 5.44527C27.0403 5.44527 27.6693 5.57606 28.1976 5.83284C28.7291 6.09215 29.1673 6.44146 29.5189 6.88078C29.8657 7.32234 30.1238 7.83843 30.2905 8.4299C30.456 9.02334 30.539 9.66065 30.539 10.343C30.539 11.392 30.3474 12.382 29.9605 13.3158C29.5733 14.2509 29.0486 15.0623 28.3809 15.7542C27.7137 16.4452 26.9258 16.9897 26.0173 17.3922C25.1102 17.795 24.124 17.9963 23.0651 17.9963C22.9282 17.9963 22.6874 17.9924 22.3474 17.9854C22.0073 17.9783 21.6165 17.9432 21.1788 17.8841C20.7083 17.8168 20.2416 17.725 19.7807 17.6091C19.2983 17.4923 18.8296 17.3245 18.3826 17.1084L22.314 0.548993L25.8352 0.00224304L24.4276 5.8784C24.7203 5.74577 25.0241 5.63924 25.3355 5.56003C25.6551 5.48215 25.983 5.44362 26.3119 5.44527H26.3122ZM23.3586 15.1962C23.8889 15.1962 24.3883 15.0654 24.858 14.8089C25.3301 14.5502 25.7444 14.1974 26.0754 13.7722C26.4213 13.3289 26.6935 12.8325 26.8815 12.3021C27.0786 11.7539 27.1787 11.1754 27.1772 10.5927C27.1772 9.86371 27.0557 9.29615 26.8136 8.88468C26.5714 8.47546 26.1234 8.26959 25.4724 8.26959C25.2592 8.26959 24.9848 8.31037 24.6442 8.38321C24.3024 8.46056 23.9966 8.62115 23.7225 8.86274L22.2234 15.1031C22.3137 15.1192 22.3937 15.1343 22.4618 15.1487C22.5286 15.1642 22.6021 15.1751 22.6759 15.1827C22.7536 15.1914 22.8426 15.1959 22.95 15.1959L23.3583 15.1962H23.3586ZM34.1907 17.6797H30.8275L33.6677 5.69924H37.054L34.1907 17.6797ZM35.8273 4.23956C35.3685 4.24337 34.9212 4.09549 34.5546 3.81881C34.1739 3.53981 33.9851 3.11034 33.9851 2.53152C33.9851 2.21315 34.0496 1.91446 34.1778 1.63265C34.3017 1.35966 34.4755 1.11231 34.6901 0.903368C34.9053 0.697527 35.1551 0.531552 35.4281 0.413149C35.7121 0.291465 36.0181 0.229622 36.327 0.231462C36.7961 0.231462 37.2192 0.371524 37.5986 0.652212C37.9762 0.934306 38.1662 1.36377 38.1662 1.93949C38.168 2.25025 38.102 2.55764 37.9726 2.84006C37.8499 3.11331 37.6766 3.36078 37.4619 3.56934C37.2473 3.77544 36.9973 3.94104 36.724 4.05815C36.4429 4.18134 36.1449 4.23956 35.8273 4.23956ZM40.0014 2.71434L43.5241 2.16731L42.659 5.69868H46.4317L45.7504 8.47687H42.0005L41.0017 12.6675C40.9097 13.0165 40.8575 13.3428 40.8429 13.6462C40.826 13.9508 40.8648 14.2124 40.9557 14.4326C41.046 14.6534 41.2082 14.8236 41.4439 14.9437C41.6787 15.066 42.0146 15.1276 42.4551 15.1276C42.8178 15.1276 43.1717 15.093 43.5128 15.0244C43.8634 14.9547 44.2084 14.8598 44.5453 14.7403L44.7967 17.3377C44.3141 17.5128 43.8208 17.657 43.3198 17.7694C42.7887 17.892 42.1599 17.9508 41.4332 17.9508C40.3883 17.9508 39.5783 17.7952 39.0012 17.4859C38.4249 17.1742 38.0175 16.7479 37.7737 16.2084C37.5332 15.6712 37.4258 15.0517 37.4558 14.3533C37.4866 13.6536 37.5921 12.9178 37.7737 12.1435L40.0014 2.71434ZM46.2838 12.8959C46.2838 11.8637 46.4504 10.8908 46.7832 9.97959C47.1157 9.06777 47.5946 8.27043 48.2158 7.58643C48.8351 6.90581 49.5895 6.36609 50.4778 5.97009C51.3611 5.57634 52.3509 5.37778 53.4413 5.37778C54.1242 5.37778 54.7339 5.44246 55.2706 5.57212C55.8093 5.7029 56.2964 5.87193 56.7372 6.08399L55.5776 8.72774C55.2684 8.60321 54.9538 8.49303 54.6345 8.39756C54.3091 8.29715 53.9121 8.24878 53.4421 8.24878C52.3192 8.24878 51.4321 8.6369 50.7716 9.40977C50.1134 10.1835 49.782 11.225 49.782 12.5317C49.782 13.3059 49.9489 13.9317 50.2834 14.4107C50.6161 14.8897 51.2309 15.1281 52.1234 15.1281C52.5636 15.1281 52.989 15.082 53.3961 14.992C53.8063 14.9009 54.1685 14.7862 54.4875 14.6506L54.7389 17.3607C54.2788 17.5376 53.8083 17.6864 53.3301 17.8062C52.8139 17.9328 52.2003 17.998 51.4885 17.998C50.5491 17.998 49.7534 17.8605 49.103 17.5888C48.4521 17.3135 47.9142 16.9476 47.4903 16.4841C47.0643 16.0194 46.7588 15.4766 46.5697 14.8542C46.3806 14.2318 46.2835 13.5773 46.2835 12.8959H46.2838ZM61.2244 17.9972C60.4217 17.9972 59.7242 17.8746 59.1327 17.6318C58.5429 17.3894 58.0548 17.0485 57.6681 16.607C57.2809 16.1677 56.9917 15.6471 56.7933 15.0472C56.5949 14.4475 56.4995 13.7835 56.4995 13.0559C56.4995 12.1435 56.6454 11.2312 56.9412 10.3207C57.2355 9.40949 57.6718 8.58993 58.2486 7.86178C58.8218 7.13249 59.5289 6.53624 60.3605 6.07134C61.1919 5.60953 62.1478 5.37721 63.2221 5.37721C64.0102 5.37721 64.7035 5.50012 65.3034 5.74284C65.9002 5.98499 66.3918 6.3284 66.7804 6.76771C67.1647 7.20928 67.4571 7.72762 67.6529 8.32865C67.851 8.92687 67.9487 9.59259 67.9487 10.3207C67.9487 11.2303 67.8045 12.1432 67.5185 13.0556C67.2321 13.9641 66.807 14.7853 66.2459 15.5149C65.6858 16.2433 64.9858 16.839 64.1443 17.3019C63.3046 17.7652 62.3302 17.9972 61.2244 17.9972ZM62.9051 8.24906C62.4065 8.24906 61.9657 8.3939 61.5883 8.68049C61.2095 8.97046 60.8916 9.33524 60.6352 9.77456C60.3759 10.2161 60.184 10.6976 60.0541 11.221C59.9251 11.7456 59.8619 12.242 59.8619 12.7125C59.8619 13.4727 59.9845 14.0653 60.2247 14.4911C60.4683 14.9147 60.9065 15.1281 61.5429 15.1281C62.0431 15.1281 62.4819 14.9839 62.8613 14.6945C63.2378 14.4067 63.5565 14.042 63.8147 13.6012C64.0722 13.1625 64.2661 12.6793 64.396 12.1548C64.5231 11.6319 64.5879 11.1333 64.5879 10.663C64.5879 9.90477 64.4662 9.31134 64.2232 8.88581C63.9813 8.46196 63.5411 8.24878 62.9051 8.24878V8.24906ZM71.6138 17.6797H68.248L71.0883 5.69924H74.476L71.6138 17.6797ZM73.2479 4.23956C72.7895 4.24344 72.3426 4.09554 71.9766 3.81881C71.5973 3.53981 71.407 3.11034 71.407 2.53152C71.407 2.21315 71.4727 1.91446 71.6006 1.63265C71.7237 1.35933 71.8974 1.11187 72.1124 0.903368C72.3278 0.697454 72.5779 0.531476 72.8512 0.413149C73.1341 0.291442 73.4391 0.229589 73.747 0.231462C74.2176 0.231462 74.6421 0.371524 75.0206 0.652212C75.3991 0.934306 75.5898 1.36377 75.5898 1.93949C75.5898 2.25899 75.522 2.55881 75.3949 2.84006C75.2678 3.12131 75.0969 3.36346 74.8853 3.56934C74.6703 3.77496 74.4204 3.94049 74.1474 4.05815C73.8654 4.18134 73.5675 4.23956 73.2479 4.23956ZM76.8999 6.24403C77.1552 6.16921 77.4402 6.07921 77.75 5.98134C78.0946 5.87422 78.4441 5.78374 78.7974 5.71021C79.1815 5.62584 79.615 5.55693 80.0917 5.50378C80.5681 5.44949 81.1116 5.42306 81.7148 5.42306C83.4886 5.42306 84.7113 5.94084 85.3864 6.97331C86.0609 8.00578 86.1776 9.41849 85.7399 11.2098L84.1928 17.6785H80.8074L82.3071 11.3456C82.3983 10.9505 82.4698 10.568 82.5231 10.1945C82.577 9.82434 82.5736 9.49781 82.5114 9.21571C82.4563 8.94526 82.3079 8.70294 82.0922 8.53143C81.8702 8.35734 81.535 8.26987 81.0804 8.26987C80.6303 8.27165 80.1814 8.318 79.7404 8.40824L77.5359 17.6777H74.1494L76.8999 6.24403Z" fill="white"/>
</g>
<defs>
<clipPath id="clip0_65_716">
<rect width="86" height="18" fill="white"/>
</clipPath>
</defs>
</svg>
