<svg width="16" height="20" viewBox="0 0 16 20" fill="none" xmlns="http://www.w3.org/2000/svg">
<path d="M16 5.6C15.7091 2.14286 13.6073 0.107143 10.1818 0H4.36364C3.97787 0 3.6079 0.15051 3.33512 0.418419C3.06234 0.686328 2.90909 1.04969 2.90909 1.42857V9.28571H1.45455C1.06878 9.28571 0.698807 9.43622 0.426026 9.70413C0.153246 9.97204 0 10.3354 0 10.7143C0 11.0932 0.153246 11.4565 0.426026 11.7244C0.698807 11.9923 1.06878 12.1429 1.45455 12.1429H2.90909V13.5714H1.45455C1.06878 13.5714 0.698807 13.7219 0.426026 13.9898C0.153246 14.2578 0 14.6211 0 15C0 15.3789 0.153246 15.7422 0.426026 16.0102C0.698807 16.2781 1.06878 16.4286 1.45455 16.4286H2.90909V18.5714C2.90909 18.9503 3.06234 19.3137 3.33512 19.5816C3.6079 19.8495 3.97787 20 4.36364 20C4.74941 20 5.11938 19.8495 5.39216 19.5816C5.66494 19.3137 5.81818 18.9503 5.81818 18.5714V12.1429H10.2327C13.6291 12.0357 15.84 9.87143 16 6.42857V5.71429C16 5.67857 16 5.63571 16 5.6ZM10.1818 9.28571H5.81818V2.85714H10.1309C12 2.91429 12.9091 3.82143 13.0909 5.77857V6.36429C13.0036 8.27143 12.0364 9.22857 10.1818 9.28571Z" fill="#5C5C74"/>
<path d="M11.6364 13.5714H8C7.61423 13.5714 7.24426 13.7219 6.97148 13.9898C6.6987 14.2578 6.54545 14.6211 6.54545 15C6.54545 15.3789 6.6987 15.7422 6.97148 16.0102C7.24426 16.2781 7.61423 16.4286 8 16.4286H11.6364C12.0221 16.4286 12.3921 16.2781 12.6649 16.0102C12.9377 15.7422 13.0909 15.3789 13.0909 15C13.0909 14.6211 12.9377 14.2578 12.6649 13.9898C12.3921 13.7219 12.0221 13.5714 11.6364 13.5714Z" fill="#5C5C74"/>
</svg>
