<svg width="20" height="17" viewBox="0 0 20 17" fill="none" xmlns="http://www.w3.org/2000/svg">
<path fill-rule="evenodd" clip-rule="evenodd" d="M19.6556 0.231024C19.9325 0.465049 20.0559 0.832829 19.9759 1.18556L16.5613 16.2425C16.4868 16.571 16.2469 16.8375 15.9272 16.9471C15.6075 17.0567 15.2535 16.9936 14.9919 16.7804L10.5297 13.1452L8.65768 16.5003C8.46607 16.8438 8.08549 17.0385 7.69347 16.9936C7.30145 16.9488 6.97517 16.6732 6.86677 16.2955L5.07899 10.0651L0.784296 9.20983C0.361763 9.1256 0.0447221 8.77551 0.00432248 8.34828C-0.0360674 7.92114 0.209764 7.5182 0.609088 7.35694L18.6577 0.0713426C18.9943 -0.0645201 19.3787 -0.00299058 19.6556 0.231024ZM4.3579 7.94018L6.04496 8.2761C6.40317 8.3474 6.69134 8.61201 6.79169 8.96182L8.09585 13.5067L9.39104 11.1854C9.53142 10.9338 9.77659 10.7572 10.0606 10.7031C10.3445 10.649 10.6379 10.7231 10.8617 10.9053L15.0057 14.2814L17.6616 2.56984L4.3579 7.94018Z" fill="white"/>
<path fill-rule="evenodd" clip-rule="evenodd" d="M19.544 1.79365C19.9718 1.5255 20.123 0.976482 19.8925 0.5286C19.662 0.0807073 19.1261 -0.117744 18.6577 0.0713426L0.609088 7.35694C0.209764 7.5182 -0.0360674 7.92114 0.00432248 8.34828C0.0447221 8.77551 0.361763 9.1256 0.784296 9.20983L5.6623 10.1812C5.90739 10.23 6.16193 10.1833 6.37344 10.0507L19.544 1.79365Z" fill="white"/>
<path fill-rule="evenodd" clip-rule="evenodd" d="M19.9759 1.18556C20.0755 0.7461 19.8586 0.29609 19.452 0.0985521C19.0454 -0.0989958 18.5557 0.00778266 18.2692 0.356464L9.48879 11.0421C9.14752 11.4573 9.20899 12.0693 9.62606 12.4091L14.9919 16.7804C15.2535 16.9936 15.6075 17.0567 15.9272 16.9471C16.2469 16.8375 16.4868 16.571 16.5613 16.2425L19.9759 1.18556Z" fill="white"/>
</svg>
