<svg width="16" height="20" viewBox="0 0 16 20" fill="none" xmlns="http://www.w3.org/2000/svg">
<path d="M8 8.88889C8.90414 8.88889 9.78798 8.62823 10.5397 8.13987C11.2915 7.6515 11.8774 6.95738 12.2235 6.14526C12.5695 5.33315 12.66 4.43952 12.4836 3.57738C12.3072 2.71524 11.8718 1.92332 11.2325 1.30175C10.5932 0.680183 9.77861 0.256891 8.89184 0.0854007C8.00507 -0.0860891 7.08591 0.00192569 6.25059 0.338315C5.41527 0.674705 4.70131 1.24436 4.199 1.97525C3.69668 2.70613 3.42857 3.56542 3.42857 4.44445C3.42857 5.62319 3.9102 6.75365 4.76751 7.58714C5.62482 8.42064 6.78758 8.88889 8 8.88889ZM14.8571 20C15.1602 20 15.4509 19.8829 15.6653 19.6746C15.8796 19.4662 16 19.1836 16 18.8889C16 16.8261 15.1571 14.8478 13.6569 13.3892C12.1566 11.9306 10.1217 11.1111 8 11.1111C5.87827 11.1111 3.84344 11.9306 2.34315 13.3892C0.842855 14.8478 3.16163e-08 16.8261 0 18.8889C0 19.1836 0.120408 19.4662 0.334735 19.6746C0.549063 19.8829 0.839753 20 1.14286 20H14.8571Z" fill="#5C5C74"/>
</svg>
