<svg width="85" height="42" viewBox="0 0 85 42" fill="none" xmlns="http://www.w3.org/2000/svg">
<path fill-rule="evenodd" clip-rule="evenodd" d="M29.8208 27V27.0066C29.814 27.0066 27.6724 27 27.1014 28.9716C26.5779 30.7795 25.1026 35.7707 25.0618 35.9083H24.6539C24.6539 35.9083 23.1446 30.8057 22.6143 28.9651C22.0433 26.9935 19.8949 27 19.8949 27H15V42H19.8949V33.0917H20.3028L23.1582 42H26.5575L29.4129 33.0983H29.8208V42H34.7157V27H29.8208Z" fill="#4DB45E"/>
<path fill-rule="evenodd" clip-rule="evenodd" d="M47.7009 27C47.7009 27 46.2664 27.1245 45.5933 28.5721L42.1261 35.9083H41.7182V27H36.8232V42H41.4462C41.4462 42 42.9487 41.869 43.6218 40.4279L47.021 33.0917H47.4289V42H52.3239V27H47.7009Z" fill="#4DB45E"/>
<path fill-rule="evenodd" clip-rule="evenodd" d="M54.4994 33.8122V42H59.3943V37.2183H64.6972C67.0087 37.2183 68.9666 35.7969 69.6941 33.8122H54.4994Z" fill="#4DB45E"/>
<path fill-rule="evenodd" clip-rule="evenodd" d="M64.6972 27H53.8127C54.3566 29.8559 56.5797 32.1485 59.4555 32.8952C60.1082 33.0655 60.7948 33.1572 61.5019 33.1572H69.8912C69.966 32.8166 70 32.4694 70 32.1092C70 29.286 67.6273 27 64.6972 27Z" fill="url(#paint0_linear_65_692)"/>
<path d="M17.9667 14.6073L20.4556 0.471204H24.3444L21.9333 14.6073H17.9667Z" fill="white"/>
<path d="M17.9667 14.6073L21.1556 0.471204H24.3444L21.9333 14.6073H17.9667Z" fill="white"/>
<path d="M36.0111 0.628273C35.2333 0.314137 33.9889 0 32.4333 0C28.5444 0 25.7444 1.96335 25.7444 4.79058C25.7444 6.911 27.6889 8.01047 29.2444 8.71728C30.8 9.42408 31.2667 9.89529 31.2667 10.5236C31.2667 11.466 30.0222 11.9372 28.9333 11.9372C27.3778 11.9372 26.5222 11.7016 25.2 11.1518L24.6556 10.9162L24.1111 14.1361C25.0444 14.5288 26.7556 14.9215 28.5444 14.9215C32.6667 14.9215 35.3889 12.9581 35.3889 9.97382C35.3889 8.32461 34.3778 7.06806 32.0444 6.04712C30.6444 5.34031 29.7889 4.94764 29.7889 4.24084C29.7889 3.61257 30.4889 2.98429 32.0444 2.98429C33.3667 2.98429 34.3 3.2199 35 3.53403L35.3889 3.6911L36.0111 0.628273Z" fill="white"/>
<path d="M36.0111 0.628273C35.2333 0.314137 33.9889 0 32.4333 0C28.5444 0 26.4444 1.96335 26.4444 4.79058C26.4444 6.911 27.6889 8.01047 29.2444 8.71728C30.8 9.42408 31.2667 9.89529 31.2667 10.5236C31.2667 11.466 30.0222 11.9372 28.9333 11.9372C27.3778 11.9372 26.5222 11.7016 25.2 11.1518L24.6556 10.9162L24.1111 14.1361C25.0444 14.5288 26.7556 14.9215 28.5444 14.9215C32.6667 14.9215 35.3889 12.9581 35.3889 9.97382C35.3889 8.32461 34.3778 7.06806 32.0444 6.04712C30.6444 5.34031 29.7889 4.94764 29.7889 4.24084C29.7889 3.61257 30.4889 2.98429 32.0444 2.98429C33.3667 2.98429 34.3 3.2199 35 3.53403L35.3889 3.6911L36.0111 0.628273Z" fill="white"/>
<path d="M42.7 0.471204C41.7667 0.471204 41.0667 0.549738 40.6778 1.49215L34.8444 14.6073H39.0444L39.8222 12.2513H44.8L45.2667 14.6073H49L45.7333 0.471204H42.7ZM40.9111 9.89529C41.1444 9.18848 42.4667 5.73299 42.4667 5.73299C42.4667 5.73299 42.7778 4.86911 43.0111 4.31937L43.2444 5.65445C43.2444 5.65445 44.0222 9.18848 44.1778 9.97382H40.9111V9.89529Z" fill="white"/>
<path d="M43.6333 0.471204C42.7 0.471204 42 0.549738 41.6111 1.49215L34.8444 14.6073H39.0444L39.8222 12.2513H44.8L45.2667 14.6073H49L45.7333 0.471204H43.6333ZM40.9111 9.89529C41.2222 9.10995 42.4667 5.73299 42.4667 5.73299C42.4667 5.73299 42.7778 4.86911 43.0111 4.31937L43.2444 5.65445C43.2444 5.65445 44.0222 9.18848 44.1778 9.97382H40.9111V9.89529Z" fill="white"/>
<path d="M10.8111 10.3665L10.4222 8.32461C9.72222 5.96859 7.46667 3.37696 4.97778 2.12042L8.47778 14.6859H12.6778L18.9778 0.549739H14.7778L10.8111 10.3665Z" fill="white"/>
<path d="M10.8111 10.3665L10.4222 8.32461C9.72222 5.96859 7.46667 3.37696 4.97778 2.12042L8.47778 14.6859H12.6778L18.9778 0.549739H15.5556L10.8111 10.3665Z" fill="white"/>
<path d="M0 0.471204L0.7 0.628273C5.67778 1.80628 9.1 4.79058 10.4222 8.32461L9.02222 1.64921C8.78889 0.706807 8.08889 0.471204 7.23333 0.471204H0Z" fill="white"/>
<path d="M0 0.471204C4.97778 1.64921 9.1 4.71204 10.4222 8.24607L9.1 2.67016C8.86667 1.72775 8.08889 1.17801 7.23333 1.17801L0 0.471204Z" fill="white"/>
<path d="M0 0.471204C4.97778 1.64921 9.1 4.71204 10.4222 8.24607L9.48889 5.18325C9.25556 4.24084 8.94444 3.29843 7.85556 2.90576L0 0.471204Z" fill="white"/>
<path d="M14.7 9.89529L12.0556 7.22513L10.8111 10.2094L10.5 8.24607C9.8 5.89005 7.54444 3.29843 5.05556 2.04189L8.55556 14.6073H12.7556L14.7 9.89529Z" fill="white"/>
<path d="M21.9333 14.6073L18.5889 11.1518L17.9667 14.6073H21.9333Z" fill="white"/>
<path d="M30.8778 9.73822C31.1889 10.0524 31.3444 10.288 31.2667 10.6021C31.2667 11.5445 30.0222 12.0157 28.9333 12.0157C27.3778 12.0157 26.5222 11.7801 25.2 11.2304L24.6556 10.9948L24.1111 14.2147C25.0444 14.6073 26.7556 15 28.5444 15C31.0333 15 33.0556 14.2932 34.2222 13.0366L30.8778 9.73822Z" fill="white"/>
<path d="M35.3889 14.6073H39.0444L39.8222 12.2513H44.8L45.2667 14.6073H49L47.6778 8.87435L43.0111 4.31937L43.2444 5.57592C43.2444 5.57592 44.0222 9.10995 44.1778 9.89529H40.9111C41.2222 9.10995 42.4667 5.73299 42.4667 5.73299C42.4667 5.73299 42.7778 4.86911 43.0111 4.31937" fill="white"/>
<path d="M70 7.5C70 5.0485 71.1815 2.8785 73 1.51C71.7455 0.566 70.191 0 68.5 0C64.358 0 61 3.358 61 7.5C61 11.642 64.358 15 68.5 15C70.191 15 71.7455 14.4335 73 13.49C71.1815 12.121 70 9.9515 70 7.5Z" fill="#EB001B"/>
<path d="M77.5 0C75.809 0 74.2545 0.566 73 1.51C74.8185 2.8785 76 5.0485 76 7.5C76 9.9515 74.8185 12.121 73 13.49C74.2545 14.434 75.809 15 77.5 15C81.642 15 85 11.642 85 7.5C85 3.358 81.642 0 77.5 0Z" fill="#F79E1B"/>
<path d="M73 13.49C74.6569 13.49 76 10.8082 76 7.5C76 4.19181 74.6569 1.51 73 1.51C71.3431 1.51 70 4.19181 70 7.5C70 10.8082 71.3431 13.49 73 13.49Z" fill="#FF5F00"/>
<defs>
<linearGradient id="paint0_linear_65_692" x1="53.814" y1="30.0786" x2="70" y2="30.0786" gradientUnits="userSpaceOnUse">
<stop offset="0.3" stop-color="#00B4E6"/>
<stop offset="1" stop-color="#088CCB"/>
</linearGradient>
</defs>
</svg>
