<svg width="28" height="15" viewBox="0 0 28 15" fill="none" xmlns="http://www.w3.org/2000/svg">
<path d="M13.7004 14.9368H15.3735C15.3735 14.9368 15.8793 14.8842 16.1366 14.623C16.3746 14.383 16.3658 13.9328 16.3658 13.9328C16.3658 13.9328 16.3326 11.8246 17.3757 11.514C18.403 11.2084 19.7226 13.5516 21.1209 14.4537C22.178 15.1356 22.9813 14.9861 22.9813 14.9861L26.7214 14.9368C26.7214 14.9368 28.678 14.8234 27.7504 13.3791C27.6752 13.2607 27.2096 12.311 24.9695 10.3589C22.6243 8.31472 22.9393 8.64665 25.764 5.11213C27.4844 2.95954 28.1722 1.64498 27.9569 1.08301C27.7522 0.547324 26.4868 0.688639 26.4868 0.688639L22.2795 0.711644C22.2795 0.711644 21.968 0.672207 21.7352 0.80202C21.5095 0.930189 21.3642 1.22596 21.3642 1.22596C21.3642 1.22596 20.6974 2.89217 19.8083 4.3086C17.934 7.29758 17.1832 7.45533 16.8769 7.26965C16.1646 6.83748 16.3431 5.53114 16.3431 4.60438C16.3431 1.70742 16.8104 0.499671 15.4313 0.187464C14.9727 0.0839423 14.6367 0.014928 13.4659 0.00342559C11.9643 -0.0113632 10.6919 0.00835518 9.97262 0.338638C9.49309 0.558826 9.12381 1.05014 9.34958 1.07808C9.62785 1.11258 10.2579 1.23747 10.5922 1.6647C11.0245 2.21517 11.0087 3.45414 11.0087 3.45414C11.0087 3.45414 11.2572 6.86378 10.4294 7.28772C9.86061 7.57857 9.08181 6.98537 7.41044 4.27245C6.55462 2.88395 5.90707 1.34756 5.90707 1.34756C5.90707 1.34756 5.78282 1.06165 5.56055 0.908828C5.29103 0.723146 4.913 0.663991 4.913 0.663991L0.912208 0.686996C0.912208 0.686996 0.311914 0.703428 0.0913974 0.948264C-0.104617 1.16681 0.0756462 1.61705 0.0756462 1.61705C0.0756462 1.61705 3.20838 8.49712 6.75414 11.9659C10.0076 15.1455 13.7004 14.9368 13.7004 14.9368Z" fill="white"/>
</svg>
