<svg width="94" height="20" viewBox="0 0 94 20" fill="none" xmlns="http://www.w3.org/2000/svg">
<path fill-rule="evenodd" clip-rule="evenodd" d="M16.0135 0.139859C12.9948 0.758321 10.4514 2.75377 9.11103 5.55503C8.32753 7.19262 8.16223 7.98261 8.17043 10.05C8.17863 12.1099 8.33213 12.8289 9.10843 14.4428C10.3389 17.0008 12.6796 18.9718 15.3635 19.7098C16.4967 20.0214 18.5882 20.0962 19.7048 19.8651C21.8087 19.4296 23.3358 18.5833 24.8636 17.0061C26.0416 15.7901 26.684 14.7576 27.1727 13.2947C27.6289 11.9296 27.7489 11.0256 27.685 9.43703C27.6214 7.85542 27.3412 6.75273 26.6609 5.40721C25.2824 2.68062 22.8058 0.784882 19.7928 0.149869C18.8649 -0.0456605 16.9439 -0.0507676 16.0135 0.139859ZM0.074399 3.07771C0.115299 3.20418 1.1221 6.47956 2.31171 10.3564L4.47471 17.4053L6.24412 17.4332L8.01353 17.4611V10.1545V2.84785H4.00681H0L0.074399 3.07771ZM55.5285 5.29801C52.7442 5.73514 51.0665 8.27733 51.6145 11.2289C51.9286 12.9212 53.2229 14.2989 55.0069 14.8399C56.8103 15.3868 59.1729 14.6003 60.2599 13.0912C60.9165 12.1794 61.0568 11.6556 61.0605 10.1011C61.0636 8.75952 61.055 8.70323 60.7452 8.03512C60.3844 7.25688 59.7144 6.47302 59.0289 6.0269C58.0873 5.41416 56.6693 5.11882 55.5285 5.29801ZM39.4854 5.40466C38.9791 5.53511 38.5884 5.74954 38.1649 6.12936L37.8136 6.44452V5.97429V5.50395H36.5136H35.2136V10.2032V14.9025H36.5136H37.8136V11.9105C37.8136 9.01052 37.8205 8.90448 38.0386 8.46346C38.1623 8.21318 38.4211 7.90068 38.6136 7.76899C38.9119 7.56478 39.0612 7.53485 39.6246 7.56631C40.159 7.59614 40.3551 7.65734 40.6483 7.88576C40.8477 8.04125 41.0678 8.26997 41.1373 8.3941C41.2281 8.55643 41.2776 9.49424 41.3136 11.7356L41.3636 14.8514H42.6136H43.8636L43.914 11.7867C43.9465 9.8052 44.005 8.62937 44.0793 8.46019C44.2753 8.01438 44.8623 7.56754 45.3502 7.49276C46.2145 7.36036 46.8722 7.71833 47.2257 8.51342C47.3899 8.88292 47.4095 9.23496 47.4115 11.8663L47.4137 14.8064L48.6887 14.7778L49.9637 14.7492L49.9909 12.0931C50.0331 7.9777 49.8816 7.18843 48.8652 6.23142C48.1072 5.51764 47.6426 5.35072 46.4136 5.35072C45.4692 5.35072 45.3133 5.378 44.8636 5.62215C44.5886 5.77151 44.1492 6.11383 43.8872 6.38312L43.4108 6.87256L42.9372 6.39763C42.2937 5.7524 41.5377 5.41426 40.6048 5.3546C40.1971 5.32855 39.6934 5.35103 39.4854 5.40466ZM66.9985 5.45461C66.7426 5.53818 66.2994 5.76732 66.0134 5.96387C65.7275 6.16042 65.4756 6.32122 65.4537 6.32122C65.4317 6.32122 65.4137 6.11435 65.4137 5.86151V5.4018H64.1637H62.9137V10.1011V14.8003H64.1637H65.4137L65.417 12.3741C65.421 9.398 65.4972 8.69291 65.8686 8.1955C66.4351 7.43678 67.6422 7.23277 68.4706 7.75582C69.1633 8.19315 69.1582 8.1668 69.2137 11.6286L69.2637 14.7492L70.5447 14.7778L71.8257 14.8065L71.7947 11.3045L71.7637 7.8025L71.5036 7.23594C71.1448 6.45443 70.729 6.00422 70.0455 5.65699C69.54 5.40016 69.3326 5.35756 68.4637 5.33212C67.7829 5.3122 67.3152 5.35123 66.9985 5.45461ZM77.2242 5.45584C75.604 5.91739 74.2626 7.26188 73.8679 8.81999C73.4029 10.6559 73.9106 12.584 75.1698 13.7641C76.0602 14.5986 77.4556 15.1068 78.8565 15.1068C79.5467 15.1068 80.7469 14.7874 81.4782 14.4091C82.0498 14.1134 83.1125 13.3698 83.109 13.2679C83.1066 13.1998 81.5586 12.042 81.4699 12.042C81.4317 12.042 81.2553 12.1551 81.0779 12.2934C80.9005 12.4316 80.4876 12.6699 80.1604 12.8229C78.8885 13.4178 77.2894 13.0808 76.5387 12.0596C75.9706 11.2869 75.8002 11.3269 79.6579 11.3269C82.0631 11.3269 83.1226 11.2929 83.1703 11.2142C83.2078 11.152 83.2603 10.8188 83.2869 10.4735C83.4382 8.5077 82.3736 6.66314 80.5587 5.74678C79.8325 5.38014 79.7164 5.35297 78.7729 5.32845C78.1068 5.31108 77.5803 5.35439 77.2242 5.45584ZM83.9138 5.5346C83.9138 5.55452 84.7238 7.62853 85.7138 10.1437C86.7038 12.6588 87.5138 14.7723 87.5138 14.8405C87.5138 14.9086 87.1816 15.7204 86.7755 16.6446C86.3694 17.5687 86.0693 18.3606 86.1085 18.4044C86.1477 18.4483 86.7756 18.4712 87.5037 18.4555L88.8276 18.4269L90.7057 13.7276C91.7386 11.1431 92.9024 8.23412 93.2918 7.26331L94 5.49823L92.6403 5.52663L91.2805 5.55503L90.1987 8.26221C89.6037 9.75116 89.1162 11.0269 89.1153 11.0971C89.1127 11.3128 88.939 11.2385 88.8767 10.9949C88.8444 10.8685 88.3492 9.59282 87.7763 8.16006L86.7346 5.55503L85.3242 5.52673C84.5485 5.5111 83.9138 5.51468 83.9138 5.5346ZM19.4731 6.57692C20.225 6.95265 20.8965 7.64048 21.2696 8.41678C21.5324 8.96353 21.5636 9.13157 21.5636 10.001C21.5636 10.892 21.5363 11.0304 21.2386 11.6481C20.8533 12.4476 20.2257 13.0754 19.4311 13.4559C18.9414 13.6904 18.7333 13.7276 17.9136 13.7276C17.0914 13.7276 16.8864 13.6907 16.39 13.4531C15.6571 13.1021 14.8758 12.304 14.5323 11.5554C14.2997 11.0482 14.2635 10.8388 14.2636 9.99889C14.2636 9.20605 14.3052 8.93635 14.4905 8.52578C14.9462 7.51595 15.7383 6.76979 16.7436 6.40325C17.5299 6.1166 18.7012 6.19107 19.4731 6.57692ZM57.496 7.91692C58.4608 8.39808 58.9305 9.43672 58.7148 10.6125C58.4435 12.092 57.6649 12.7588 56.2137 12.7543C54.832 12.7501 53.9137 11.6616 53.9137 10.0281C53.9137 9.36613 54.1164 8.83634 54.5438 8.38123C55.3508 7.52167 56.3793 7.35996 57.496 7.91692ZM79.6156 7.90568C80.0326 8.12154 80.7138 8.86208 80.7138 9.0996C80.7138 9.14475 79.7238 9.18163 78.5137 9.18163C76.8202 9.18163 76.3138 9.15221 76.3141 9.05394C76.3148 8.79476 76.7178 8.26211 77.099 8.01632C77.914 7.49072 78.7436 7.45425 79.6156 7.90568Z" fill="#A03DFF"/>
</svg>
